<svg xmlns="http://www.w3.org/2000/svg" width="48" height="48" viewBox="0 0 48 48" fill="none">
  <rect width="48" height="48" rx="8" fill="#15192B"/>
  <path d="M24 9C15.72 9 9 15.72 9 24C9 32.28 15.72 39 24 39C32.28 39 39 32.28 39 24C39 15.72 32.28 9 24 9ZM24 34.5C18.21 34.5 13.5 29.79 13.5 24C13.5 18.21 18.21 13.5 24 13.5C29.79 13.5 34.5 18.21 34.5 24C34.5 29.79 29.79 34.5 24 34.5Z" fill="#15CFF1"/>
  <path d="M24 16.5C19.86 16.5 16.5 19.86 16.5 24C16.5 28.14 19.86 31.5 24 31.5C28.14 31.5 31.5 28.14 31.5 24C31.5 19.86 28.14 16.5 24 16.5ZM24 27C22.35 27 21 25.65 21 24C21 22.35 22.35 21 24 21C25.65 21 27 22.35 27 24C27 25.65 25.65 27 24 27Z" fill="#0D7CE9"/>
  <path d="M24 18C20.69 18 18 20.69 18 24C18 27.31 20.69 30 24 30C27.31 30 30 27.31 30 24C30 20.69 27.31 18 24 18ZM24 28.5C21.52 28.5 19.5 26.48 19.5 24C19.5 21.52 21.52 19.5 24 19.5C26.48 19.5 28.5 21.52 28.5 24C28.5 26.48 26.48 28.5 24 28.5Z" fill="#0D7CE9" fill-opacity="0.6"/>
</svg>