<svg xmlns="http://www.w3.org/2000/svg" width="128" height="128" viewBox="0 0 128 128" fill="none">
  <rect width="128" height="128" rx="16" fill="#15192B"/>
  <path d="M64 24C41.92 24 24 41.92 24 64C24 86.08 41.92 104 64 104C86.08 104 104 86.08 104 64C104 41.92 86.08 24 64 24ZM64 92C48.56 92 36 79.44 36 64C36 48.56 48.56 36 64 36C79.44 36 92 48.56 92 64C92 79.44 79.44 92 64 92Z" fill="#15CFF1"/>
  <path d="M64 44C53.04 44 44 53.04 44 64C44 74.96 53.04 84 64 84C74.96 84 84 74.96 84 64C84 53.04 74.96 44 64 44ZM64 72C59.6 72 56 68.4 56 64C56 59.6 59.6 56 64 56C68.4 56 72 59.6 72 64C72 68.4 68.4 72 64 72Z" fill="#0D7CE9"/>
  <path d="M64 48C55.2 48 48 55.2 48 64C48 72.8 55.2 80 64 80C72.8 80 80 72.8 80 64C80 55.2 72.8 48 64 48ZM64 76C57.4 76 52 70.6 52 64C52 57.4 57.4 52 64 52C70.6 52 76 57.4 76 64C76 70.6 70.6 76 64 76Z" fill="#0D7CE9" fill-opacity="0.6"/>
  <circle cx="64" cy="64" r="8" fill="#15CFF1" fill-opacity="0.8"/>
  <path d="M64 28C44.12 28 28 44.12 28 64C28 83.88 44.12 100 64 100C83.88 100 100 83.88 100 64C100 44.12 83.88 28 64 28ZM64 96C46.36 96 32 81.64 32 64C32 46.36 46.36 32 64 32C81.64 32 96 46.36 96 64C96 81.64 81.64 96 64 96Z" fill="#15CFF1" fill-opacity="0.4"/>
</svg>