<svg xmlns="http://www.w3.org/2000/svg" width="16" height="16" viewBox="0 0 16 16" fill="none">
  <rect width="16" height="16" rx="3" fill="#15192B"/>
  <path d="M8 3C5.24 3 3 5.24 3 8C3 10.76 5.24 13 8 13C10.76 13 13 10.76 13 8C13 5.24 10.76 3 8 3ZM8 11.5C6.07 11.5 4.5 9.93 4.5 8C4.5 6.07 6.07 4.5 8 4.5C9.93 4.5 11.5 6.07 11.5 8C11.5 9.93 9.93 11.5 8 11.5Z" fill="#15CFF1"/>
  <path d="M8 5.5C6.62 5.5 5.5 6.62 5.5 8C5.5 9.38 6.62 10.5 8 10.5C9.38 10.5 10.5 9.38 10.5 8C10.5 6.62 9.38 5.5 8 5.5ZM8 9C7.45 9 7 8.55 7 8C7 7.45 7.45 7 8 7C8.55 7 9 7.45 9 8C9 8.55 8.55 9 8 9Z" fill="#0D7CE9"/>
</svg>